<svg xmlns="http://www.w3.org/2000/svg" xmlns:xlink="http://www.w3.org/1999/xlink" viewBox="0 0 145.44 434.88"><title>anne-body-systems-3</title><g id="landmarks"><image id="urinary" width="601" height="1801" transform="translate(1.3 2.07) scale(0.24 0.24)" xlink:href="anne-body-systems-31.png"/><image id="immune" width="601" height="1801" transform="translate(0.8 1.91) scale(0.24 0.24)" xlink:href="anne-body-systems-32.png"/><image id="integumentary" width="601" height="1801" transform="translate(0.88 1.95) scale(0.24 0.24)" xlink:href="anne-body-systems-33.png"/><image id="reproductive" width="601" height="1802" transform="translate(1.27 2.9) scale(0.24 0.24)" xlink:href="anne-body-systems-34.png"/><image id="digestive" width="601" height="1801" transform="translate(0.92 2.09) scale(0.24 0.24)" xlink:href="anne-body-systems-35.png"/><image id="endocrine" width="601" height="1801" transform="translate(0.88 2.14) scale(0.24 0.24)" xlink:href="anne-body-systems-36.png"/><image id="skeletal" width="601" height="1802" transform="translate(0.99 0.44) scale(0.24 0.24)" xlink:href="anne-body-systems-37.png"/><image id="cardiovascular" width="601" height="1801" transform="translate(0.73) scale(0.24 0.24)" xlink:href="anne-body-systems-38.png"/><image id="muscular" width="602" height="1802" transform="translate(0.42 0.49) scale(0.24 0.24)" xlink:href="anne-body-systems-39.png"/><image id="respiratory" width="602" height="1802" transform="translate(0 0.94) scale(0.24 0.24)" xlink:href="anne-body-systems-310.png"/><image id="nervous" width="601" height="1800" transform="translate(1.04 1.34) scale(0.24 0.24)" xlink:href="anne-body-systems-311.png"/></g><g id="Layer_1" data-name="Layer 1"><image id="body-systems" width="288" height="838" transform="translate(0.24 8.36) scale(0.5)" xlink:href="anne@2x.png"/></g></svg>