<svg xmlns="http://www.w3.org/2000/svg" xmlns:xlink="http://www.w3.org/1999/xlink" viewBox="0 0 145.23 434.91"><title>Anne System_1</title><g id="landmarks"><image id="urinary" width="600" height="1800" transform="translate(1.23 2.07) scale(0.24 0.24)" xlink:href="Anne System_11.png"/><image id="immune" width="600" height="1800" transform="translate(0.73 1.91) scale(0.24 0.24)" xlink:href="Anne System_12.png"/><image id="integumentary" width="600" height="1800" transform="translate(0.81 1.95) scale(0.24 0.24)" xlink:href="Anne System_13.png"/><image id="reproductive" width="600" height="1800" transform="translate(1.16 2.91) scale(0.24 0.24)" xlink:href="Anne System_14.png"/><image id="digestive" width="600" height="1800" transform="translate(0.85 2.09) scale(0.24 0.24)" xlink:href="Anne System_15.png"/><image id="endocrine" width="600" height="1800" transform="translate(0.81 2.14) scale(0.24 0.24)" xlink:href="Anne System_16.png"/><image id="skeletal" width="600" height="1800" transform="translate(0.88 0.45) scale(0.24 0.24)" xlink:href="Anne System_17.png"/><image id="cardiovascular" width="600" height="1800" transform="translate(0.66) scale(0.24 0.24)" xlink:href="Anne System_18.png"/><image id="muscular" width="600" height="1800" transform="translate(0.42 0.46) scale(0.24 0.24)" xlink:href="Anne System_19.png"/><image id="respiratory" width="600" height="1800" transform="translate(0 0.91) scale(0.24 0.24)" xlink:href="Anne System_110.png"/><image id="nervous" width="600" height="1800" transform="translate(1 5.33) scale(0.24 0.24)" xlink:href="Anne System_111.png"/></g><g id="Layer_1" data-name="Layer 1"><image id="body-systems" width="288" height="838" transform="translate(0.1 8.38) scale(0.5)" xlink:href="anne@2x.png"/></g></svg>